<?xml version="1.0" encoding="utf-8"?>
<!-- Generator: Adobe Illustrator 24.3.0, SVG Export Plug-In . SVG Version: 6.00 Build 0)  -->
<svg version="1.1" id="Layer_1" xmlns="http://www.w3.org/2000/svg" xmlns:xlink="http://www.w3.org/1999/xlink" x="0px" y="0px"
	 viewBox="0 0 388.44 191.11" style="enable-background:new 0 0 388.44 191.11;" xml:space="preserve">
<style type="text/css">
	.st0{fill:#414042;}
	.st1{fill:#BE1E2D;}
	.st2{fill:#808285;}
</style>
<g>
	<g>
		<path class="st0" d="M78.4,90.19H60.03c-0.36,0-0.7-0.19-0.89-0.5c-0.19-0.31-0.21-0.7-0.05-1.02l28.47-57.52h-45.1L6.77,71.07
			l53.51,63.86L78.4,90.19z"/>
		<path class="st1" d="M128.43,31.15h-17.75L91.61,67.31c0,0,22.61-0.4,22.61-0.4c0.39,0,0.75,0.22,0.93,0.57
			c0.18,0.36,0.15,0.78-0.08,1.11l-51.45,70.35l21.82,26.04l78.67-93.89L128.43,31.15z"/>
	</g>
	<rect x="188.75" y="12.5" class="st2" width="3" height="170.11"/>
	<g>
		<path class="st0" d="M231.96,58.06v59.99h-14.02V58.06H231.96z"/>
		<path class="st0" d="M305.44,71.25l-11.95,4c-1.61-4.75-5.01-7.12-10.21-7.12c-5.55,0-8.33,1.8-8.33,5.41
			c0,1.44,0.52,2.65,1.56,3.65c1.04,1,3.39,1.86,7.04,2.6c6.11,1.23,10.59,2.48,13.43,3.74c2.84,1.26,5.23,3.29,7.18,6.08
			c1.95,2.8,2.92,5.92,2.92,9.38c0,5.42-2.09,10.11-6.26,14.06c-4.17,3.96-10.35,5.93-18.55,5.93c-6.15,0-11.38-1.4-15.7-4.2
			s-7.16-6.95-8.54-12.46l13.01-2.94c1.46,5.6,5.53,8.39,12.19,8.39c3.22,0,5.61-0.62,7.19-1.87c1.58-1.25,2.37-2.73,2.37-4.46
			c0-1.76-0.72-3.12-2.15-4.09s-4.2-1.88-8.29-2.73c-7.64-1.58-13.08-3.75-16.33-6.48s-4.87-6.75-4.87-12.02
			c0-5.33,1.94-9.83,5.82-13.49c3.88-3.66,9.14-5.49,15.78-5.49C294.51,57.14,302.07,61.84,305.44,71.25z"/>
		<path class="st0" d="M346.53,95.77v22.28h-14.28V58.06h23.64c5.27,0,9.31,0.56,12.11,1.69s5.3,3.14,7.49,6.04s3.3,6.46,3.3,10.68
			c0,2.96-0.59,5.84-1.76,8.66s-2.83,5.02-4.97,6.64s-4.21,2.68-6.22,3.21c-2.01,0.53-5.15,0.79-9.43,0.79H346.53z M346.05,84.87
			h9.14c3.49,0,5.93-0.81,7.34-2.42s2.11-3.46,2.11-5.54c0-2.43-0.78-4.37-2.35-5.8s-3.95-2.15-7.14-2.15h-9.1V84.87z"/>
	</g>
	<g>
		<path class="st2" d="M218.11,134.22v9.95h-2.32v-9.95H218.11z"/>
		<path class="st2" d="M221.59,134.22h3.04c1.24,0,2.16,0.17,2.77,0.51c0.61,0.34,1.15,0.88,1.63,1.62
			c0.48,0.74,0.72,1.68,0.72,2.81c0,1.42-0.42,2.61-1.26,3.57s-2,1.43-3.47,1.43h-3.42V134.22z M223.88,136.05v6.24h0.96
			c0.85,0,1.48-0.32,1.89-0.95c0.41-0.63,0.62-1.38,0.62-2.23c0-0.6-0.12-1.16-0.35-1.67c-0.24-0.51-0.53-0.87-0.88-1.08
			c-0.35-0.21-0.77-0.31-1.26-0.31H223.88z"/>
		<path class="st2" d="M237.65,134.22l3.11,9.95h-2.5l-0.61-2.05h-3.22l-0.62,2.05h-2.04l3.19-9.95H237.65z M234.91,133.39
			c-0.26,0-0.47-0.08-0.63-0.26c-0.16-0.17-0.23-0.36-0.23-0.58c0-0.22,0.08-0.42,0.24-0.59c0.16-0.17,0.37-0.26,0.62-0.26
			c0.23,0,0.43,0.07,0.61,0.22c0.18,0.15,0.27,0.36,0.27,0.62c0,0.26-0.09,0.46-0.26,0.62
			C235.36,133.31,235.16,133.39,234.91,133.39z M234.99,140.28h2.11l-1.04-3.49L234.99,140.28z M237.35,133.39
			c-0.26,0-0.47-0.08-0.63-0.26c-0.16-0.17-0.23-0.36-0.23-0.58c0-0.22,0.08-0.42,0.24-0.59s0.37-0.26,0.62-0.26
			c0.23,0,0.44,0.08,0.61,0.23c0.17,0.15,0.26,0.36,0.26,0.62c0,0.26-0.09,0.46-0.26,0.62C237.8,133.31,237.59,133.39,237.35,133.39
			z"/>
		<path class="st2" d="M250.98,134.22v9.95h-1.99l-3.89-6.72c0,0.17,0.01,0.28,0.01,0.34c0.02,0.17,0.03,0.31,0.03,0.43v5.95h-1.81
			v-9.95h2.51l3.38,5.87c-0.03-0.29-0.04-0.51-0.04-0.66v-5.2H250.98z"/>
		<path class="st2" d="M266.56,136.41l-1.98,0.66c-0.27-0.79-0.83-1.18-1.69-1.18c-0.92,0-1.38,0.3-1.38,0.9
			c0,0.24,0.09,0.44,0.26,0.6c0.17,0.16,0.56,0.31,1.17,0.43c1.01,0.2,1.76,0.41,2.23,0.62c0.47,0.21,0.87,0.55,1.19,1.01
			c0.32,0.46,0.48,0.98,0.48,1.56c0,0.9-0.35,1.67-1.04,2.33c-0.69,0.66-1.72,0.98-3.08,0.98c-1.02,0-1.89-0.23-2.6-0.7
			c-0.72-0.46-1.19-1.15-1.42-2.07l2.16-0.49c0.24,0.93,0.92,1.39,2.02,1.39c0.53,0,0.93-0.1,1.19-0.31
			c0.26-0.21,0.39-0.45,0.39-0.74c0-0.29-0.12-0.52-0.36-0.68c-0.24-0.16-0.7-0.31-1.37-0.45c-1.27-0.26-2.17-0.62-2.71-1.08
			c-0.54-0.45-0.81-1.12-0.81-1.99c0-0.88,0.32-1.63,0.96-2.24c0.64-0.61,1.52-0.91,2.62-0.91
			C264.75,134.07,266,134.85,266.56,136.41z"/>
		<path class="st2" d="M274.73,134.22l3.11,9.95h-2.5l-0.61-2.05h-3.22l-0.62,2.05h-2.04l3.19-9.95H274.73z M272,133.39
			c-0.26,0-0.47-0.08-0.63-0.26c-0.16-0.17-0.23-0.36-0.23-0.58c0-0.22,0.08-0.42,0.24-0.59c0.16-0.17,0.37-0.26,0.62-0.26
			c0.23,0,0.43,0.07,0.61,0.22c0.18,0.15,0.27,0.36,0.27,0.62c0,0.26-0.09,0.46-0.26,0.62C272.45,133.31,272.24,133.39,272,133.39z
			 M272.07,140.28h2.11l-1.04-3.49L272.07,140.28z M274.43,133.39c-0.26,0-0.47-0.08-0.63-0.26c-0.16-0.17-0.23-0.36-0.23-0.58
			c0-0.22,0.08-0.42,0.24-0.59c0.16-0.17,0.37-0.26,0.62-0.26c0.23,0,0.44,0.08,0.61,0.23s0.26,0.36,0.26,0.62
			c0,0.26-0.09,0.46-0.26,0.62S274.67,133.39,274.43,133.39z"/>
		<path class="st2" d="M288.09,134.22v9.95h-2.29v-4.1h-3.1v4.1h-2.29v-9.95h2.29v3.88h3.1v-3.88H288.09z"/>
		<path class="st2" d="M293.87,134.22v4.67l3.12-4.67h2.23l-2.39,3.55l2.99,6.39h-2.57l-1.98-4.32l-1.4,2.04v2.28h-2.29v-9.95
			H293.87z"/>
		<path class="st2" d="M306.21,144.32c-1.34,0-2.38-0.5-3.11-1.51c-0.73-1.01-1.1-2.22-1.1-3.65c0-1.45,0.37-2.66,1.11-3.64
			s1.8-1.46,3.17-1.46c1.39,0,2.44,0.52,3.14,1.56c0.71,1.04,1.06,2.22,1.06,3.56c0,1.44-0.36,2.66-1.09,3.65
			C308.67,143.82,307.61,144.32,306.21,144.32z M305.11,133.16c-0.26,0-0.47-0.08-0.63-0.26c-0.16-0.17-0.23-0.36-0.23-0.58
			c0-0.22,0.08-0.42,0.24-0.59c0.16-0.17,0.37-0.26,0.62-0.26c0.23,0,0.43,0.07,0.61,0.22c0.18,0.15,0.27,0.36,0.27,0.62
			c0,0.26-0.09,0.46-0.26,0.62C305.56,133.08,305.35,133.16,305.11,133.16z M306.28,135.97c-1.22,0-1.83,1.07-1.83,3.22
			c0,2.15,0.61,3.23,1.83,3.23c1.18,0,1.77-1.07,1.77-3.22C308.05,137.05,307.46,135.97,306.28,135.97z M307.54,133.16
			c-0.26,0-0.47-0.08-0.63-0.26c-0.16-0.17-0.23-0.36-0.23-0.58c0-0.22,0.08-0.42,0.24-0.59c0.16-0.17,0.37-0.26,0.62-0.26
			c0.23,0,0.44,0.08,0.61,0.23s0.26,0.36,0.26,0.62c0,0.26-0.09,0.46-0.26,0.62C307.99,133.08,307.79,133.16,307.54,133.16z"/>
		<path class="st2" d="M315.88,140.47v3.69h-2.37v-9.95h3.92c0.87,0,1.54,0.09,2.01,0.28c0.46,0.19,0.88,0.52,1.24,1
			c0.36,0.48,0.55,1.07,0.55,1.77c0,0.49-0.1,0.97-0.29,1.44c-0.19,0.47-0.47,0.83-0.82,1.1c-0.35,0.27-0.7,0.44-1.03,0.53
			c-0.33,0.09-0.85,0.13-1.56,0.13H315.88z M315.8,138.67h1.52c0.58,0,0.98-0.13,1.22-0.4c0.23-0.27,0.35-0.57,0.35-0.92
			c0-0.4-0.13-0.72-0.39-0.96s-0.65-0.36-1.18-0.36h-1.51V138.67z"/>
		<path class="st2" d="M328.3,134.22l3.11,9.95h-2.5l-0.61-2.05h-3.22l-0.62,2.05h-2.04l3.19-9.95H328.3z M325.64,140.28h2.11
			l-1.04-3.49L325.64,140.28z"/>
		<path class="st2" d="M336.33,142.2h3.96v1.97h-6.32v-9.95h2.36V142.2z"/>
		<path class="st2" d="M349.66,134.22l-3,9.95h-2.5l-2.99-9.95h2.48l1.99,7.11l2.07-7.11H349.66z"/>
		<path class="st2" d="M359.15,136.12h-4.74v2.04h3.72v1.87h-3.72v2.17h4.74v1.97h-7.1v-9.95h7.1V136.12z"/>
		<path class="st2" d="M364.4,142.2h3.96v1.97h-6.32v-9.95h2.36V142.2z"/>
		<path class="st2" d="M378.79,134.22v6.19c0,1-0.11,1.75-0.34,2.23c-0.23,0.49-0.65,0.89-1.26,1.2c-0.61,0.31-1.4,0.47-2.36,0.47
			c-0.96,0-1.72-0.14-2.28-0.42c-0.57-0.28-0.99-0.68-1.27-1.2c-0.28-0.52-0.42-1.28-0.42-2.28v-6.19h2.53v6.19
			c0,0.53,0.04,0.93,0.13,1.18c0.09,0.25,0.27,0.45,0.54,0.6s0.6,0.22,0.99,0.22c0.44,0,0.79-0.07,1.07-0.22
			c0.27-0.15,0.46-0.34,0.55-0.58c0.09-0.24,0.13-0.64,0.13-1.21v-6.19H378.79z"/>
	</g>
</g>
</svg>
