<?xml version="1.0" encoding="utf-8"?>
<!-- Generator: Adobe Illustrator 24.3.0, SVG Export Plug-In . SVG Version: 6.00 Build 0)  -->
<svg version="1.1" id="Layer_1" xmlns="http://www.w3.org/2000/svg" xmlns:xlink="http://www.w3.org/1999/xlink" x="0px" y="0px"
	 viewBox="0 0 179 234" style="enable-background:new 0 0 179 234;" xml:space="preserve">
<style type="text/css">
	.st0{fill:#414042;}
	.st1{fill:#BE1E2D;}
	.st2{fill:#808285;}
</style>
<g>
	<g>
		<path class="st0" d="M84.67,67.2H68.15c-0.33,0-0.63-0.17-0.8-0.45c-0.17-0.28-0.19-0.62-0.04-0.92L92.9,14.13H52.35L20.28,50.01
			l48.1,57.4L84.67,67.2z"/>
		<path class="st1" d="M129.65,14.13h-15.96l-17.14,32.5c0,0,20.32-0.36,20.33-0.36c0.35,0,0.68,0.2,0.84,0.51
			c0.17,0.32,0.14,0.7-0.08,0.99l-46.25,63.23L91,134.42l70.72-84.4L129.65,14.13z"/>
	</g>
	
		<rect x="89.83" y="70.74" transform="matrix(-1.836970e-16 1 -1 -1.836970e-16 236.5173 54.5173)" class="st2" width="2.35" height="149.56"/>
	<g>
		<path class="st0" d="M39.03,154.85v46.94H28.06v-46.94H39.03z"/>
		<path class="st0" d="M96.54,165.16l-9.35,3.13c-1.26-3.71-3.92-5.57-7.99-5.57c-4.35,0-6.52,1.41-6.52,4.23
			c0,1.12,0.41,2.07,1.22,2.85c0.81,0.78,2.65,1.46,5.51,2.03c4.78,0.97,8.29,1.94,10.51,2.93c2.22,0.99,4.09,2.57,5.62,4.76
			c1.52,2.19,2.28,4.64,2.28,7.34c0,4.24-1.63,7.91-4.9,11c-3.26,3.1-8.1,4.64-14.52,4.64c-4.81,0-8.9-1.09-12.28-3.28
			s-5.61-5.44-6.68-9.75l10.18-2.3c1.14,4.38,4.32,6.57,9.54,6.57c2.52,0,4.39-0.49,5.63-1.46c1.23-0.97,1.85-2.14,1.85-3.49
			c0-1.38-0.56-2.44-1.68-3.2c-1.12-0.76-3.29-1.47-6.49-2.13c-5.98-1.24-10.23-2.93-12.78-5.07c-2.54-2.14-3.81-5.28-3.81-9.4
			c0-4.17,1.52-7.69,4.55-10.56c3.03-2.87,7.15-4.3,12.35-4.3C87.98,154.13,93.9,157.81,96.54,165.16z"/>
		<path class="st0" d="M128.69,184.35v17.44h-11.18v-46.94h18.5c4.13,0,7.28,0.44,9.47,1.32c2.19,0.88,4.14,2.46,5.86,4.73
			s2.58,5.06,2.58,8.36c0,2.32-0.46,4.57-1.38,6.77c-0.92,2.2-2.21,3.93-3.89,5.19c-1.67,1.26-3.3,2.1-4.87,2.51
			c-1.57,0.41-4.03,0.62-7.38,0.62H128.69z M128.32,175.83h7.15c2.73,0,4.64-0.63,5.74-1.89s1.65-2.71,1.65-4.33
			c0-1.9-0.61-3.42-1.84-4.54s-3.09-1.69-5.59-1.69h-7.12V175.83z"/>
	</g>
	<g>
		<path class="st2" d="M18.35,211.61v9.13h-2.13v-9.13H18.35z"/>
		<path class="st2" d="M21.55,211.61h2.79c1.14,0,1.98,0.16,2.54,0.47s1.06,0.81,1.5,1.49c0.44,0.68,0.66,1.54,0.66,2.58
			c0,1.31-0.39,2.4-1.16,3.27c-0.77,0.88-1.83,1.31-3.19,1.31h-3.14V211.61z M23.65,213.28v5.73h0.88c0.78,0,1.36-0.29,1.73-0.87
			c0.38-0.58,0.57-1.26,0.57-2.05c0-0.55-0.11-1.06-0.32-1.53c-0.22-0.47-0.48-0.8-0.8-0.99c-0.32-0.19-0.71-0.28-1.15-0.28H23.65z"
			/>
		<path class="st2" d="M36.29,211.61l2.86,9.13h-2.3l-0.56-1.88h-2.95l-0.57,1.88h-1.87l2.92-9.13H36.29z M33.77,210.84
			c-0.24,0-0.43-0.08-0.57-0.23c-0.14-0.16-0.21-0.33-0.21-0.53c0-0.2,0.07-0.39,0.22-0.54c0.15-0.16,0.34-0.24,0.57-0.24
			c0.21,0,0.4,0.07,0.56,0.2c0.16,0.14,0.25,0.33,0.25,0.57c0,0.24-0.08,0.42-0.24,0.56C34.19,210.77,34,210.84,33.77,210.84z
			 M33.85,217.17h1.93l-0.96-3.2L33.85,217.17z M36.01,210.84c-0.24,0-0.43-0.08-0.57-0.23c-0.14-0.16-0.21-0.33-0.21-0.53
			c0-0.2,0.07-0.39,0.22-0.54c0.15-0.16,0.34-0.24,0.57-0.24c0.21,0,0.4,0.07,0.56,0.21c0.16,0.14,0.24,0.33,0.24,0.57
			c0,0.24-0.08,0.42-0.24,0.56C36.42,210.77,36.23,210.84,36.01,210.84z"/>
		<path class="st2" d="M48.51,211.61v9.13h-1.82l-3.57-6.16c0,0.16,0.01,0.26,0.01,0.31c0.02,0.16,0.03,0.29,0.03,0.39v5.46h-1.66
			v-9.13h2.3l3.1,5.38c-0.03-0.27-0.04-0.47-0.04-0.61v-4.77H48.51z"/>
		<path class="st2" d="M62.81,213.61l-1.82,0.61c-0.24-0.72-0.76-1.08-1.55-1.08c-0.84,0-1.27,0.27-1.27,0.82
			c0,0.22,0.08,0.4,0.24,0.55c0.16,0.15,0.51,0.28,1.07,0.39c0.93,0.19,1.61,0.38,2.04,0.57c0.43,0.19,0.8,0.5,1.09,0.93
			c0.3,0.43,0.44,0.9,0.44,1.43c0,0.82-0.32,1.54-0.95,2.14c-0.63,0.6-1.58,0.9-2.82,0.9c-0.94,0-1.73-0.21-2.39-0.64
			s-1.09-1.06-1.3-1.9l1.98-0.45c0.22,0.85,0.84,1.28,1.86,1.28c0.49,0,0.85-0.09,1.09-0.28c0.24-0.19,0.36-0.42,0.36-0.68
			c0-0.27-0.11-0.47-0.33-0.62c-0.22-0.15-0.64-0.28-1.26-0.41c-1.16-0.24-1.99-0.57-2.48-0.99c-0.49-0.42-0.74-1.03-0.74-1.83
			c0-0.81,0.29-1.5,0.88-2.05c0.59-0.56,1.39-0.84,2.4-0.84C61.15,211.46,62.3,212.18,62.81,213.61z"/>
		<path class="st2" d="M70.31,211.61l2.86,9.13h-2.3l-0.56-1.88h-2.95l-0.57,1.88h-1.87l2.92-9.13H70.31z M67.8,210.84
			c-0.24,0-0.43-0.08-0.57-0.23c-0.14-0.16-0.21-0.33-0.21-0.53c0-0.2,0.07-0.39,0.22-0.54c0.15-0.16,0.34-0.24,0.57-0.24
			c0.21,0,0.4,0.07,0.56,0.2s0.25,0.33,0.25,0.57c0,0.24-0.08,0.42-0.24,0.56C68.21,210.77,68.02,210.84,67.8,210.84z M67.87,217.17
			h1.93l-0.96-3.2L67.87,217.17z M70.03,210.84c-0.24,0-0.43-0.08-0.57-0.23s-0.21-0.33-0.21-0.53c0-0.2,0.07-0.39,0.22-0.54
			c0.15-0.16,0.34-0.24,0.57-0.24c0.21,0,0.4,0.07,0.56,0.21c0.16,0.14,0.24,0.33,0.24,0.57c0,0.24-0.08,0.42-0.24,0.56
			C70.44,210.77,70.25,210.84,70.03,210.84z"/>
		<path class="st2" d="M82.56,211.61v9.13h-2.1v-3.76h-2.85v3.76h-2.1v-9.13h2.1v3.56h2.85v-3.56H82.56z"/>
		<path class="st2" d="M87.86,211.61v4.29l2.86-4.29h2.05l-2.19,3.26l2.74,5.87h-2.35l-1.82-3.96l-1.28,1.87v2.09h-2.1v-9.13H87.86z
			"/>
		<path class="st2" d="M99.19,220.87c-1.23,0-2.18-0.46-2.85-1.38s-1.01-2.04-1.01-3.35c0-1.33,0.34-2.44,1.02-3.34
			c0.68-0.89,1.65-1.34,2.91-1.34c1.27,0,2.23,0.48,2.88,1.43s0.97,2.04,0.97,3.27c0,1.32-0.33,2.44-1,3.35
			S100.47,220.87,99.19,220.87z M98.18,210.63c-0.24,0-0.43-0.08-0.57-0.23c-0.14-0.16-0.21-0.33-0.21-0.53
			c0-0.2,0.07-0.39,0.22-0.54s0.34-0.24,0.57-0.24c0.21,0,0.4,0.07,0.56,0.2c0.16,0.14,0.25,0.33,0.25,0.57
			c0,0.24-0.08,0.42-0.24,0.56S98.4,210.63,98.18,210.63z M99.25,213.21c-1.12,0-1.68,0.99-1.68,2.95c0,1.97,0.56,2.96,1.68,2.96
			c1.09,0,1.63-0.99,1.63-2.95C100.88,214.2,100.34,213.21,99.25,213.21z M100.41,210.63c-0.24,0-0.43-0.08-0.57-0.23
			c-0.14-0.16-0.21-0.33-0.21-0.53c0-0.2,0.07-0.39,0.22-0.54c0.15-0.16,0.34-0.24,0.57-0.24c0.21,0,0.4,0.07,0.56,0.21
			c0.16,0.14,0.24,0.33,0.24,0.57c0,0.24-0.08,0.42-0.24,0.56C100.83,210.56,100.64,210.63,100.41,210.63z"/>
		<path class="st2" d="M108.06,217.34v3.39h-2.17v-9.13h3.6c0.8,0,1.42,0.09,1.84,0.26c0.43,0.17,0.81,0.48,1.14,0.92
			c0.33,0.44,0.5,0.98,0.5,1.62c0,0.45-0.09,0.89-0.27,1.32c-0.18,0.43-0.43,0.76-0.76,1.01c-0.33,0.24-0.64,0.41-0.95,0.49
			c-0.31,0.08-0.78,0.12-1.43,0.12H108.06z M107.99,215.68h1.39c0.53,0,0.9-0.12,1.12-0.37c0.21-0.24,0.32-0.53,0.32-0.84
			c0-0.37-0.12-0.66-0.36-0.88s-0.6-0.33-1.09-0.33h-1.38V215.68z"/>
		<path class="st2" d="M119.45,211.61l2.86,9.13h-2.3l-0.56-1.88h-2.95l-0.57,1.88h-1.87l2.92-9.13H119.45z M117.01,217.17h1.93
			l-0.96-3.2L117.01,217.17z"/>
		<path class="st2" d="M126.83,218.93h3.63v1.81h-5.8v-9.13h2.17V218.93z"/>
		<path class="st2" d="M139.05,211.61l-2.76,9.13H134l-2.74-9.13h2.28l1.83,6.52l1.9-6.52H139.05z"/>
		<path class="st2" d="M147.76,213.34h-4.35v1.87h3.42v1.72h-3.42v1.99h4.35v1.81h-6.52v-9.13h6.52V213.34z"/>
		<path class="st2" d="M152.58,218.93h3.63v1.81h-5.8v-9.13h2.17V218.93z"/>
		<path class="st2" d="M165.78,211.61v5.68c0,0.92-0.1,1.6-0.31,2.05c-0.21,0.45-0.6,0.82-1.16,1.1c-0.56,0.29-1.28,0.43-2.16,0.43
			s-1.58-0.13-2.1-0.39s-0.91-0.63-1.17-1.1s-0.39-1.17-0.39-2.09v-5.68h2.32v5.68c0,0.49,0.04,0.85,0.12,1.08s0.25,0.42,0.49,0.55
			s0.55,0.2,0.91,0.2c0.4,0,0.73-0.07,0.98-0.2c0.25-0.13,0.42-0.31,0.5-0.53c0.08-0.22,0.12-0.59,0.12-1.11v-5.68H165.78z"/>
	</g>
</g>
</svg>
